<?xml version="1.0" encoding="UTF-8" standalone="no"?><!DOCTYPE svg PUBLIC "-//W3C//DTD SVG 1.1//EN" "http://www.w3.org/Graphics/SVG/1.1/DTD/svg11.dtd"><!-- Generated by graphviz version 2.40.1 (20161225.0304)
 --><!-- Title: %0 Pages: 1 --><svg xmlns="http://www.w3.org/2000/svg" xmlns:xlink="http://www.w3.org/1999/xlink" width="1135pt" height="404pt" viewBox="0.00 0.00 1134.69 404.00">
<g id="graph0" class="graph" transform="scale(1 1) rotate(0) translate(4 400)">
<title>%0</title>
<polygon fill="#ffffff" stroke="transparent" points="-4,4 -4,-400 1130.6934,-400 1130.6934,4 -4,4"/>
<!-- [root] aws_default_vpc.default (expand) -->
<g id="node1" class="node">
<title>[root] aws_default_vpc.default (expand)</title>
<polygon fill="none" stroke="#000000" points="554.0576,-108 400.6124,-108 400.6124,-72 554.0576,-72 554.0576,-108"/>
<text text-anchor="middle" x="477.335" y="-85.8" font-family="Times,serif" font-size="14.00" fill="#000000">aws_default_vpc.default</text>
</g>
<!-- [root] provider[&quot;registry.terraform.io/hashicorp/aws&quot;] -->
<g id="node7" class="node">
<title>[root] provider["registry.terraform.io/hashicorp/aws"]</title>
<polygon fill="none" stroke="#000000" points="671.335,-36 396.3445,-18 671.335,0 946.3254,-18 671.335,-36"/>
<text text-anchor="middle" x="671.335" y="-13.8" font-family="Times,serif" font-size="14.00" fill="#000000">provider["registry.terraform.io/hashicorp/aws"]</text>
</g>
<!-- [root] aws_default_vpc.default (expand)&#45;&gt;[root] provider[&quot;registry.terraform.io/hashicorp/aws&quot;] -->
<g id="edge1" class="edge">
<title>[root] aws_default_vpc.default (expand)-&gt;[root] provider["registry.terraform.io/hashicorp/aws"]</title>
<path fill="none" stroke="#000000" d="M526.2894,-71.8314C555.031,-61.1644 591.3017,-47.7031 620.3824,-36.9102"/>
<polygon fill="#000000" stroke="#000000" points="621.7903,-40.1211 629.9477,-33.3603 619.3547,-33.5584 621.7903,-40.1211"/>
</g>
<!-- [root] aws_instance.http_server (expand) -->
<g id="node2" class="node">
<title>[root] aws_instance.http_server (expand)</title>
<polygon fill="none" stroke="#000000" points="703.9466,-252 546.7234,-252 546.7234,-216 703.9466,-216 703.9466,-252"/>
<text text-anchor="middle" x="625.335" y="-229.8" font-family="Times,serif" font-size="14.00" fill="#000000">aws_instance.http_server</text>
</g>
<!-- [root] aws_security_group.http_server_sg (expand) -->
<g id="node3" class="node">
<title>[root] aws_security_group.http_server_sg (expand)</title>
<polygon fill="none" stroke="#000000" points="375.4981,-180 161.1719,-180 161.1719,-144 375.4981,-144 375.4981,-180"/>
<text text-anchor="middle" x="268.335" y="-157.8" font-family="Times,serif" font-size="14.00" fill="#000000">aws_security_group.http_server_sg</text>
</g>
<!-- [root] aws_instance.http_server (expand)&#45;&gt;[root] aws_security_group.http_server_sg (expand) -->
<g id="edge2" class="edge">
<title>[root] aws_instance.http_server (expand)-&gt;[root] aws_security_group.http_server_sg (expand)</title>
<path fill="none" stroke="#000000" d="M546.5479,-218.1102C493.8596,-207.484 424.1056,-193.4159 367.6244,-182.0247"/>
<polygon fill="#000000" stroke="#000000" points="368.0955,-178.5494 357.6009,-180.0032 366.7115,-185.4112 368.0955,-178.5494"/>
</g>
<!-- [root] data.aws_ami.aws_linux&#45;2&#45;latest (expand) -->
<g id="node4" class="node">
<title>[root] data.aws_ami.aws_linux-2-latest (expand)</title>
<polygon fill="none" stroke="#000000" points="771.3308,-108 571.3392,-108 571.3392,-72 771.3308,-72 771.3308,-108"/>
<text text-anchor="middle" x="671.335" y="-85.8" font-family="Times,serif" font-size="14.00" fill="#000000">data.aws_ami.aws_linux-2-latest</text>
</g>
<!-- [root] aws_instance.http_server (expand)&#45;&gt;[root] data.aws_ami.aws_linux&#45;2&#45;latest (expand) -->
<g id="edge3" class="edge">
<title>[root] aws_instance.http_server (expand)-&gt;[root] data.aws_ami.aws_linux-2-latest (expand)</title>
<path fill="none" stroke="#000000" d="M631.1609,-215.7623C639.0414,-191.0928 653.1715,-146.8598 662.3992,-117.9731"/>
<polygon fill="#000000" stroke="#000000" points="665.8474,-118.6805 665.5564,-108.0896 659.1793,-116.5503 665.8474,-118.6805"/>
</g>
<!-- [root] data.aws_subnet_ids.default_subnets (expand) -->
<g id="node6" class="node">
<title>[root] data.aws_subnet_ids.default_subnets (expand)</title>
<polygon fill="none" stroke="#000000" points="616.6711,-180 393.9989,-180 393.9989,-144 616.6711,-144 616.6711,-180"/>
<text text-anchor="middle" x="505.335" y="-157.8" font-family="Times,serif" font-size="14.00" fill="#000000">data.aws_subnet_ids.default_subnets</text>
</g>
<!-- [root] aws_instance.http_server (expand)&#45;&gt;[root] data.aws_subnet_ids.default_subnets (expand) -->
<g id="edge4" class="edge">
<title>[root] aws_instance.http_server (expand)-&gt;[root] data.aws_subnet_ids.default_subnets (expand)</title>
<path fill="none" stroke="#000000" d="M595.0539,-215.8314C579.7052,-206.6221 560.8852,-195.3301 544.4527,-185.4706"/>
<polygon fill="#000000" stroke="#000000" points="545.9821,-182.3066 535.6064,-180.1628 542.3806,-188.3091 545.9821,-182.3066"/>
</g>
<!-- [root] var.aws_key_pair -->
<g id="node8" class="node">
<title>[root] var.aws_key_pair</title>
<polygon fill="none" stroke="#000000" points="781.9565,-180 672.7135,-180 672.7135,-144 787.9565,-144 787.9565,-174 781.9565,-180"/>
<polyline fill="none" stroke="#000000" points="781.9565,-180 781.9565,-174 "/>
<polyline fill="none" stroke="#000000" points="787.9565,-174 781.9565,-174 "/>
<text text-anchor="middle" x="730.335" y="-157.8" font-family="Times,serif" font-size="14.00" fill="#000000">var.aws_key_pair</text>
</g>
<!-- [root] aws_instance.http_server (expand)&#45;&gt;[root] var.aws_key_pair -->
<g id="edge5" class="edge">
<title>[root] aws_instance.http_server (expand)-&gt;[root] var.aws_key_pair</title>
<path fill="none" stroke="#000000" d="M651.8309,-215.8314C665.0124,-206.7927 681.1197,-195.7476 695.3061,-186.0198"/>
<polygon fill="#000000" stroke="#000000" points="697.5796,-188.7047 703.8475,-180.1628 693.6209,-182.9316 697.5796,-188.7047"/>
</g>
<!-- [root] aws_security_group.http_server_sg (expand)&#45;&gt;[root] aws_default_vpc.default (expand) -->
<g id="edge6" class="edge">
<title>[root] aws_security_group.http_server_sg (expand)-&gt;[root] aws_default_vpc.default (expand)</title>
<path fill="none" stroke="#000000" d="M320.8048,-143.9243C349.5005,-134.0387 385.2238,-121.7321 415.295,-111.3726"/>
<polygon fill="#000000" stroke="#000000" points="416.529,-114.6495 424.8437,-108.0831 414.2489,-108.0312 416.529,-114.6495"/>
</g>
<!-- [root] data.aws_ami.aws_linux&#45;2&#45;latest (expand)&#45;&gt;[root] provider[&quot;registry.terraform.io/hashicorp/aws&quot;] -->
<g id="edge7" class="edge">
<title>[root] data.aws_ami.aws_linux-2-latest (expand)-&gt;[root] provider["registry.terraform.io/hashicorp/aws"]</title>
<path fill="none" stroke="#000000" d="M671.335,-71.8314C671.335,-64.131 671.335,-54.9743 671.335,-46.4166"/>
<polygon fill="#000000" stroke="#000000" points="674.8351,-46.4132 671.335,-36.4133 667.8351,-46.4133 674.8351,-46.4132"/>
</g>
<!-- [root] data.aws_ami_ids.aws_linux_2_latest_ids (expand) -->
<g id="node5" class="node">
<title>[root] data.aws_ami_ids.aws_linux_2_latest_ids (expand)</title>
<polygon fill="none" stroke="#000000" points="988.6794,-252 737.9905,-252 737.9905,-216 988.6794,-216 988.6794,-252"/>
<text text-anchor="middle" x="863.335" y="-229.8" font-family="Times,serif" font-size="14.00" fill="#000000">data.aws_ami_ids.aws_linux_2_latest_ids</text>
</g>
<!-- [root] data.aws_ami_ids.aws_linux_2_latest_ids (expand)&#45;&gt;[root] provider[&quot;registry.terraform.io/hashicorp/aws&quot;] -->
<g id="edge8" class="edge">
<title>[root] data.aws_ami_ids.aws_linux_2_latest_ids (expand)-&gt;[root] provider["registry.terraform.io/hashicorp/aws"]</title>
<path fill="none" stroke="#000000" d="M858.2312,-215.9148C848.2255,-183.3422 823.1899,-114.2801 780.335,-72 765.2236,-57.0913 745.1744,-45.5651 726.3948,-37.0635"/>
<polygon fill="#000000" stroke="#000000" points="727.5831,-33.7643 717.015,-33.0118 724.8072,-40.1904 727.5831,-33.7643"/>
</g>
<!-- [root] data.aws_subnet_ids.default_subnets (expand)&#45;&gt;[root] aws_default_vpc.default (expand) -->
<g id="edge9" class="edge">
<title>[root] data.aws_subnet_ids.default_subnets (expand)-&gt;[root] aws_default_vpc.default (expand)</title>
<path fill="none" stroke="#000000" d="M498.2694,-143.8314C495.209,-135.9617 491.5571,-126.5712 488.1668,-117.8533"/>
<polygon fill="#000000" stroke="#000000" points="491.3823,-116.4647 484.4957,-108.4133 484.8582,-119.0019 491.3823,-116.4647"/>
</g>
<!-- [root] output.aws_security_group_http_server_details (expand) -->
<g id="node9" class="node">
<title>[root] output.aws_security_group_http_server_details (expand)</title>
<ellipse fill="none" stroke="#000000" cx="255.335" cy="-234" rx="255.1701" ry="18"/>
<text text-anchor="middle" x="255.335" y="-229.8" font-family="Times,serif" font-size="14.00" fill="#000000">[root] output.aws_security_group_http_server_details (expand)</text>
</g>
<!-- [root] output.aws_security_group_http_server_details (expand)&#45;&gt;[root] aws_security_group.http_server_sg (expand) -->
<g id="edge10" class="edge">
<title>[root] output.aws_security_group_http_server_details (expand)-&gt;[root] aws_security_group.http_server_sg (expand)</title>
<path fill="none" stroke="#000000" d="M258.6154,-215.8314C260.0058,-208.131 261.6591,-198.9743 263.2042,-190.4166"/>
<polygon fill="#000000" stroke="#000000" points="266.6778,-190.8761 265.0104,-180.4133 259.7892,-189.6322 266.6778,-190.8761"/>
</g>
<!-- [root] output.http_server_public_dns (expand) -->
<g id="node10" class="node">
<title>[root] output.http_server_public_dns (expand)</title>
<ellipse fill="none" stroke="#000000" cx="424.335" cy="-306" rx="189.8223" ry="18"/>
<text text-anchor="middle" x="424.335" y="-301.8" font-family="Times,serif" font-size="14.00" fill="#000000">[root] output.http_server_public_dns (expand)</text>
</g>
<!-- [root] output.http_server_public_dns (expand)&#45;&gt;[root] aws_instance.http_server (expand) -->
<g id="edge11" class="edge">
<title>[root] output.http_server_public_dns (expand)-&gt;[root] aws_instance.http_server (expand)</title>
<path fill="none" stroke="#000000" d="M472.9915,-288.5708C500.7578,-278.6247 535.7945,-266.0742 565.2651,-255.5176"/>
<polygon fill="#000000" stroke="#000000" points="566.7936,-258.6879 575.0275,-252.0206 564.433,-252.0979 566.7936,-258.6879"/>
</g>
<!-- [root] provider[&quot;registry.terraform.io/hashicorp/aws&quot;] (close) -->
<g id="node11" class="node">
<title>[root] provider["registry.terraform.io/hashicorp/aws"] (close)</title>
<ellipse fill="none" stroke="#000000" cx="879.335" cy="-306" rx="247.2168" ry="18"/>
<text text-anchor="middle" x="879.335" y="-301.8" font-family="Times,serif" font-size="14.00" fill="#000000">[root] provider["registry.terraform.io/hashicorp/aws"] (close)</text>
</g>
<!-- [root] provider[&quot;registry.terraform.io/hashicorp/aws&quot;] (close)&#45;&gt;[root] aws_instance.http_server (expand) -->
<g id="edge12" class="edge">
<title>[root] provider["registry.terraform.io/hashicorp/aws"] (close)-&gt;[root] aws_instance.http_server (expand)</title>
<path fill="none" stroke="#000000" d="M817.5244,-288.4789C781.8026,-278.353 736.6404,-265.5511 699.0722,-254.9019"/>
<polygon fill="#000000" stroke="#000000" points="699.7703,-251.4619 689.1949,-252.102 697.8613,-258.1966 699.7703,-251.4619"/>
</g>
<!-- [root] provider[&quot;registry.terraform.io/hashicorp/aws&quot;] (close)&#45;&gt;[root] data.aws_ami_ids.aws_linux_2_latest_ids (expand) -->
<g id="edge13" class="edge">
<title>[root] provider["registry.terraform.io/hashicorp/aws"] (close)-&gt;[root] data.aws_ami_ids.aws_linux_2_latest_ids (expand)</title>
<path fill="none" stroke="#000000" d="M875.2975,-287.8314C873.5863,-280.131 871.5515,-270.9743 869.6498,-262.4166"/>
<polygon fill="#000000" stroke="#000000" points="873.0129,-261.4159 867.4268,-252.4133 866.1796,-262.9344 873.0129,-261.4159"/>
</g>
<!-- [root] root -->
<g id="node12" class="node">
<title>[root] root</title>
<ellipse fill="none" stroke="#000000" cx="424.335" cy="-378" rx="50.9823" ry="18"/>
<text text-anchor="middle" x="424.335" y="-373.8" font-family="Times,serif" font-size="14.00" fill="#000000">[root] root</text>
</g>
<!-- [root] root&#45;&gt;[root] output.aws_security_group_http_server_details (expand) -->
<g id="edge14" class="edge">
<title>[root] root-&gt;[root] output.aws_security_group_http_server_details (expand)</title>
<path fill="none" stroke="#000000" d="M376.4331,-371.7115C323.5962,-363.6771 243.6027,-347.8854 225.335,-324 211.1051,-305.3941 221.9446,-279.6845 234.391,-260.5063"/>
<polygon fill="#000000" stroke="#000000" points="237.3247,-262.4176 240.1385,-252.2032 231.5691,-258.4335 237.3247,-262.4176"/>
</g>
<!-- [root] root&#45;&gt;[root] output.http_server_public_dns (expand) -->
<g id="edge15" class="edge">
<title>[root] root-&gt;[root] output.http_server_public_dns (expand)</title>
<path fill="none" stroke="#000000" d="M424.335,-359.8314C424.335,-352.131 424.335,-342.9743 424.335,-334.4166"/>
<polygon fill="#000000" stroke="#000000" points="427.8351,-334.4132 424.335,-324.4133 420.8351,-334.4133 427.8351,-334.4132"/>
</g>
<!-- [root] root&#45;&gt;[root] provider[&quot;registry.terraform.io/hashicorp/aws&quot;] (close) -->
<g id="edge16" class="edge">
<title>[root] root-&gt;[root] provider["registry.terraform.io/hashicorp/aws"] (close)</title>
<path fill="none" stroke="#000000" d="M470.8897,-370.6331C539.6869,-359.7465 670.6112,-339.0288 765.7332,-323.9765"/>
<polygon fill="#000000" stroke="#000000" points="766.3632,-327.4205 775.6933,-322.4005 765.2691,-320.5065 766.3632,-327.4205"/>
</g>
</g>
</svg>